# xmcd CD database file
#
# Track frame offsets:
#	150
#	16257
#	35971
#	55063
#	80683
#	115135
#	155545
#	168211
#	192695
#	207007
#	224032
#	248269
#	268021
#	284371
#	306440
#	330067
#
# Disc length: 4659 seconds
#
# Revision: 0
# Processed by: cddbd v1.5.2PL0 Copyright (c) Steve Scherf et al.
# Submitted via: CDex 1.51
#
DISCID=e3123110
DTITLE=John Coltrane - Ballads - CD4
DYEAR=2015
DGENRE=Jazz
TTITLE0=I'll wait and pray
TTITLE1=Naima
TTITLE2=Central Park West
TTITLE3=Ev'ry time we say goodbye
TTITLE4=Aisha
TTITLE5=To her ladyship
TTITLE6=It's easy to remember
TTITLE7=Soul eyes
TTITLE8=Nancy
TTITLE9=What's new?
TTITLE10=My little brown book
TTITLE11=Too young to go steady
TTITLE12=All or nothing at all
TTITLE13=I wish I knew
TTITLE14=You don't know what love is
TTITLE15=Say it
EXTD=YEAR: 2015
EXTT0=
EXTT1=
EXTT2=
EXTT3=
EXTT4=
EXTT5=
EXTT6=
EXTT7=
EXTT8=
EXTT9=
EXTT10=
EXTT11=
EXTT12=
EXTT13=
EXTT14=
EXTT15=
PLAYORDER=
